PathFileType	3	(X/Y/Z)	D:\minhoCalibration\240510\subject1_KPNP\preferred\preferred01.trc
DataRate	CameraRate	NumFrames	NumMarkers	Units	OrigDataRate	OrigDataStartFrame	OrigNumFrames
200.0	200.0	12	10	mm	200.0	394	227	
Frame#	Time	Left_Ankle_Outer1			Left_Ankle_Inner1			Left_Knee_Outer1			Left_Knee_Inner1			Left_Wrist1			Right_Wrist1			Right_Knee_Inner1			Right_Knee_Outer1			Right_Ankle_Inner1			Right_Ankle_Outer1			
		X1	Y1	Z1	X2	Y2	Z2	X3	Y3	Z3	X4	Y4	Z4	X5	Y5	Z5	X6	Y6	Z6	X7	Y7	Z7	X8	Y8	Z8	X9	Y9	Z9	X10	Y10	Z10	
394	1.96	-478.26837	156.08391	-546.32306	-509.08725	170.81851	-497.72452	-295.63843	570.26331	-504.62686	-372.6329	556.07971	-425.79446	-376.2532	1015.2737	-722.88953	-575.05927	1155.1868	-441.78613	-363.77554	897.70477	-106.76698	-436.82159	993.94128	-71.78318	-759.91309	807.10419	-263.78714	-811.06311	879.54291	-229.46289
395	1.965	-481.89139	155.42773	-545.21051	-512.3089	170.14839	-496.68112	-298.57733	568.79681	-503.04889	-374.76849	554.88892	-425.44672	-382.26001	1012.4897	-723.8504	-569.40521	1160.2775	-438.63086	-345.68872	911.55963	-106.25333	-412.24966	1011.0285	-73.152786	-758.02661	818.0495	-221.26283	-804.95026	893.61682	-187.2459
396	1.97	-485.29498	154.65979	-544.31769	-515.49249	169.30084	-495.60297	-301.21207	568.00934	-501.21927	-377.26883	553.9007	-425.4343	-387.841	1009.6593	-724.62537	-563.85425	1164.7583	-439.75995	-328.87967	925.00012	-106.37492	-390.02219	1026.9066	-75.824989	-753.28497	829.02148	-176.10883	-796.37	907.64722	-143.27582
397	1.975	-488.40134	153.95584	-543.5575	-518.75	168.46721	-495.03281	-303.90799	567.26294	-498.94623	-381.09708	553.6955	-422.35855	-393.51224	1006.7219	-723.96857	-559.42065	1170.1796	-436.9509	-313.07706	938.13123	-107.18253	-369.04086	1041.4985	-80.305031	-745.41479	839.63324	-127.7615	-784.88123	921.65009	-97.865105
398	1.98	-491.40158	153.08388	-542.69208	-521.89801	167.30313	-494.21109	-306.86871	566.50513	-496.05573	-385.00882	553.43909	-418.77493	-398.2717	1004.0028	-723.61615	-555.12805	1174.5403	-435.78094	-298.80212	950.74689	-108.49448	-351.03452	1054.4323	-85.388596	-733.77191	851.06061	-77.638725	-770.15613	935.84979	-51.279751
399	1.985	-494.06104	152.22752	-541.80066	-524.7406	166.08232	-493.40726	-310.20047	565.73425	-492.46579	-389.85995	552.57135	-417.70438	-402.86398	1001.1762	-722.22662	-551.35651	1178.5184	-435.59927	-286.56433	962.52112	-110.13357	-334.85931	1066.0208	-91.575737	-717.73828	864.08276	-27.211084	-751.85669	950.50439	-3.8445423
400	1.99	-496.54675	151.30981	-540.74524	-527.47284	164.83055	-492.63843	-312.96255	565.18976	-488.90936	-394.19366	552.0152	-414.60953	-406.56256	998.51086	-720.70624	-548.41345	1181.9916	-435.34155	-275.66931	973.44714	-112.25183	-322.01755	1076.5228	-97.463409	-697.64441	877.25403	23.848089	-729.99347	965.17206	43.124763
401	1.995	-498.81876	150.49382	-539.79541	-529.82159	163.57382	-491.746	-315.78226	564.35516	-484.99771	-398.34073	551.46405	-412.38138	-409.45139	996.23828	-718.61224	-546.01324	1184.7167	-435.62369	-266.89279	983.29517	-114.44081	-312.04794	1085.5316	-103.37207	-672.45422	891.38898	74.001732	-704.1308	980.16608	89.893402
402	2	-500.78546	149.74112	-538.66656	-532.02454	162.55145	-490.85779	-318.04993	563.73987	-481.1821	-402.0592	550.82233	-411.38315	-411.59985	993.99384	-716.12329	-544.1366	1186.8025	-436.2276	-260.73563	991.9342	-116.46147	-305.26361	1093.5416	-108.48296	-645.46246	907.90997	121.68386	-674.07452	995.69635	136.07925
403	2.005	-502.51788	149.14107	-537.70343	-534.08685	161.63234	-490.03143	-320.069	563.10815	-477.32193	-406.1611	550.50604	-407.3299	-412.84442	992.12787	-713.73352	-543.10278	1188.3949	-436.86313	-257.17679	999.4024	-118.22203	-301.38586	1100.304	-112.81697	-611.10492	925.24005	168.96851	-639.99817	1011.9747	180.89294
404	2.01	-504.13751	148.63603	-536.79639	-536.03302	160.97221	-489.22415	-321.90369	562.26581	-473.46191	-408.37708	550.13409	-406.86057	-413.68677	990.56195	-711.29858	-542.81122	1189.5663	-437.31024	-256.16354	1005.9785	-119.40523	-300.12109	1105.6852	-116.08706	-573.87494	941.48633	211.18518	-601.38629	1028.3115	223.34563
405	2.015	-505.76151	148.00584	-535.58319	-537.83374	160.19933	-488.5459	-323.1955	561.62964	-469.86032	-412.63162	549.05786	-403.40143	-413.97382	989.32587	-708.76929	-543.30542	1190.2815	-437.37766	-257.78427	1011.5953	-119.82352	-301.19769	1110.0504	-117.87173	-529.27917	958.54163	253.00439	-558.52045	1045.4203	262.68704
